<?xml version="1.0" standalone="no"?>
<!DOCTYPE svg PUBLIC "-//W3C//DTD SVG 20010904//EN"
 "http://www.w3.org/TR/2001/REC-SVG-20010904/DTD/svg10.dtd">
<svg version="1.0" xmlns="http://www.w3.org/2000/svg"
 width="1024.000000pt" height="1024.000000pt" viewBox="0 0 1024.000000 1024.000000"
 preserveAspectRatio="xMidYMid meet">
<metadata>
Created by potrace 1.16, written by Peter Selinger 2001-2019
</metadata>
<g transform="translate(0.000000,1024.000000) scale(0.100000,-0.100000)"
fill="#ffffff" stroke="none">
<path d="M4640 10225 c-30 -9 -73 -28 -95 -43 -85 -59 -139 -187 -117 -280 7
-31 6 -44 -2 -47 -6 -1 -78 -24 -161 -50 -414 -131 -819 -328 -1150 -559 -331
-231 -649 -538 -897 -866 -334 -442 -558 -902 -691 -1421 -163 -630 -165
-1411 -6 -2044 178 -707 525 -1319 1044 -1841 343 -345 681 -588 1120 -804
411 -202 870 -337 1343 -395 l52 -7 0 -302 0 -303 -94 -6 c-311 -21 -701 -118
-986 -247 -501 -227 -837 -567 -858 -866 -4 -68 -3 -72 26 -105 l30 -34 2119
-2 c1669 -2 2123 0 2142 10 45 23 66 63 65 125 -1 161 -119 365 -304 528 -360
316 -911 533 -1492 586 l-128 12 0 291 0 292 133 6 c302 15 703 94 1012 199
192 65 414 159 445 188 56 52 53 78 -36 280 -44 102 -56 117 -104 131 -33 10
-44 8 -106 -19 -339 -148 -732 -249 -1093 -282 -217 -20 -617 -8 -821 25 -285
46 -500 101 -751 194 -305 113 -528 226 -794 404 -353 236 -702 580 -955 942
-318 455 -524 989 -605 1565 -22 157 -31 591 -16 757 35 370 109 683 243 1018
378 947 1127 1673 2106 2042 142 53 408 133 443 133 13 0 22 -15 35 -60 18
-65 49 -100 90 -100 44 0 179 42 202 63 33 31 28 73 -29 245 l-51 154 25 51
c54 109 58 186 13 282 -60 130 -208 198 -346 160z"/>
<path d="M5340 9189 c-466 -41 -889 -162 -1285 -368 -322 -167 -561 -347 -830
-622 -355 -364 -618 -797 -780 -1284 -89 -267 -138 -526 -138 -725 0 -105 3
-134 22 -180 54 -137 126 -193 381 -292 206 -81 287 -126 357 -200 54 -58 84
-109 114 -197 54 -156 147 -236 340 -292 130 -38 205 -76 256 -131 95 -104 92
-226 -13 -459 -51 -114 -67 -189 -62 -289 4 -68 10 -97 34 -145 44 -91 153
-193 334 -315 258 -173 356 -293 404 -494 60 -247 245 -398 637 -520 237 -73
299 -78 299 -22 0 12 -15 67 -34 122 -36 102 -56 217 -56 307 1 127 52 295
123 404 46 71 198 220 307 300 106 78 124 96 139 136 18 46 -8 89 -85 144
-331 236 -411 348 -475 668 -45 228 -92 329 -202 439 -117 117 -266 194 -529
271 -68 20 -169 59 -226 86 -239 116 -362 325 -318 539 20 96 48 150 111 218
72 78 136 113 300 167 227 75 343 148 440 278 65 86 100 160 151 315 90 278
168 365 475 528 238 126 336 211 407 354 36 72 37 76 37 190 0 108 -2 119 -31
180 -78 162 -193 265 -435 389 -144 75 -189 108 -189 140 0 88 103 123 375
124 332 1 632 -68 940 -218 301 -146 477 -285 780 -615 28 -31 88 -78 136
-107 150 -91 219 -189 227 -326 6 -105 -16 -139 -122 -192 -167 -83 -200 -187
-96 -310 60 -72 74 -109 68 -189 -9 -105 -43 -160 -192 -309 -143 -144 -175
-186 -212 -274 -34 -83 -32 -160 5 -238 34 -72 82 -134 217 -281 110 -119 132
-162 120 -228 -13 -70 -61 -116 -191 -183 -85 -43 -127 -71 -142 -93 -40 -57
-34 -70 80 -204 40 -47 56 -100 43 -150 -10 -41 -63 -93 -132 -132 -35 -20
-66 -39 -69 -44 -3 -4 20 -20 50 -34 83 -41 116 -101 100 -182 -4 -26 -24 -55
-64 -98 -32 -34 -63 -71 -70 -83 -21 -41 -12 -92 34 -191 96 -211 78 -382 -54
-505 -98 -92 -185 -115 -486 -127 -267 -11 -294 -14 -396 -46 -89 -28 -183
-86 -248 -153 -135 -141 -209 -385 -167 -548 30 -119 76 -182 170 -231 47 -25
60 -27 166 -27 99 1 136 6 265 39 1005 253 1822 1045 2180 2111 127 378 181
679 191 1065 21 797 -234 1553 -735 2180 -102 128 -341 365 -476 473 -506 404
-1081 628 -1760 687 -138 11 -376 11 -515 -1z"/>
</g>
</svg>
